<mxfile host="app.diagrams.net" agent="Mozilla/5.0 (Macintosh; Intel Mac OS X 10_15_7) AppleWebKit/537.36 (KHTML, like Gecko) Chrome/126.0.0.0 Safari/537.36" version="24.7.5">
  <diagram name="Page-1" id="MbNL2B8-UAcM_F8eHcel">
    <mxGraphModel dx="1266" dy="651" grid="1" gridSize="10" guides="1" tooltips="1" connect="1" arrows="1" fold="1" page="1" pageScale="1" pageWidth="850" pageHeight="1100" math="0" shadow="0">
      <root>
        <mxCell id="0" />
        <mxCell id="1" parent="0" />
        <mxCell id="dc4niTDKmquKS93eARYd-12" value="" style="rounded=0;whiteSpace=wrap;html=1;" vertex="1" parent="1">
          <mxGeometry x="120" y="50" width="680" height="430" as="geometry" />
        </mxCell>
        <mxCell id="dc4niTDKmquKS93eARYd-1" value="Auth Service" style="rounded=1;whiteSpace=wrap;html=1;" vertex="1" parent="1">
          <mxGeometry x="355" y="120" width="120" height="60" as="geometry" />
        </mxCell>
        <mxCell id="dc4niTDKmquKS93eARYd-2" value="Account service" style="rounded=1;whiteSpace=wrap;html=1;" vertex="1" parent="1">
          <mxGeometry x="355" y="240" width="120" height="60" as="geometry" />
        </mxCell>
        <mxCell id="dc4niTDKmquKS93eARYd-3" value="Transaction Service" style="rounded=1;whiteSpace=wrap;html=1;" vertex="1" parent="1">
          <mxGeometry x="355" y="360" width="120" height="60" as="geometry" />
        </mxCell>
        <mxCell id="dc4niTDKmquKS93eARYd-4" value="Database" style="shape=cylinder3;whiteSpace=wrap;html=1;boundedLbl=1;backgroundOutline=1;size=15;" vertex="1" parent="1">
          <mxGeometry x="605" y="150" width="150" height="230" as="geometry" />
        </mxCell>
        <mxCell id="dc4niTDKmquKS93eARYd-5" style="edgeStyle=orthogonalEdgeStyle;rounded=0;orthogonalLoop=1;jettySize=auto;html=1;exitX=1;exitY=0.5;exitDx=0;exitDy=0;entryX=0;entryY=0;entryDx=0;entryDy=65;entryPerimeter=0;" edge="1" parent="1" source="dc4niTDKmquKS93eARYd-1" target="dc4niTDKmquKS93eARYd-4">
          <mxGeometry relative="1" as="geometry" />
        </mxCell>
        <mxCell id="dc4niTDKmquKS93eARYd-6" style="edgeStyle=orthogonalEdgeStyle;rounded=0;orthogonalLoop=1;jettySize=auto;html=1;exitX=1;exitY=0.5;exitDx=0;exitDy=0;entryX=0;entryY=0.5;entryDx=0;entryDy=0;entryPerimeter=0;" edge="1" parent="1" source="dc4niTDKmquKS93eARYd-2" target="dc4niTDKmquKS93eARYd-4">
          <mxGeometry relative="1" as="geometry" />
        </mxCell>
        <mxCell id="dc4niTDKmquKS93eARYd-7" style="edgeStyle=orthogonalEdgeStyle;rounded=0;orthogonalLoop=1;jettySize=auto;html=1;exitX=1;exitY=0.5;exitDx=0;exitDy=0;entryX=0;entryY=0;entryDx=0;entryDy=165;entryPerimeter=0;" edge="1" parent="1" source="dc4niTDKmquKS93eARYd-3" target="dc4niTDKmquKS93eARYd-4">
          <mxGeometry relative="1" as="geometry" />
        </mxCell>
        <mxCell id="dc4niTDKmquKS93eARYd-15" style="edgeStyle=orthogonalEdgeStyle;rounded=0;orthogonalLoop=1;jettySize=auto;html=1;exitX=1;exitY=0.5;exitDx=0;exitDy=0;entryX=0;entryY=0.5;entryDx=0;entryDy=0;" edge="1" parent="1" source="dc4niTDKmquKS93eARYd-8" target="dc4niTDKmquKS93eARYd-1">
          <mxGeometry relative="1" as="geometry" />
        </mxCell>
        <mxCell id="dc4niTDKmquKS93eARYd-8" value="Auth Controller" style="rounded=1;whiteSpace=wrap;html=1;" vertex="1" parent="1">
          <mxGeometry x="170" y="120" width="120" height="60" as="geometry" />
        </mxCell>
        <mxCell id="dc4niTDKmquKS93eARYd-16" style="edgeStyle=orthogonalEdgeStyle;rounded=0;orthogonalLoop=1;jettySize=auto;html=1;exitX=1;exitY=0.5;exitDx=0;exitDy=0;entryX=0;entryY=0.5;entryDx=0;entryDy=0;" edge="1" parent="1" source="dc4niTDKmquKS93eARYd-9" target="dc4niTDKmquKS93eARYd-2">
          <mxGeometry relative="1" as="geometry" />
        </mxCell>
        <mxCell id="dc4niTDKmquKS93eARYd-9" value="Account Controller" style="rounded=1;whiteSpace=wrap;html=1;" vertex="1" parent="1">
          <mxGeometry x="170" y="240" width="120" height="60" as="geometry" />
        </mxCell>
        <mxCell id="dc4niTDKmquKS93eARYd-18" style="edgeStyle=orthogonalEdgeStyle;rounded=0;orthogonalLoop=1;jettySize=auto;html=1;exitX=1;exitY=0.5;exitDx=0;exitDy=0;entryX=0;entryY=0.5;entryDx=0;entryDy=0;" edge="1" parent="1" source="dc4niTDKmquKS93eARYd-10" target="dc4niTDKmquKS93eARYd-3">
          <mxGeometry relative="1" as="geometry" />
        </mxCell>
        <mxCell id="dc4niTDKmquKS93eARYd-10" value="Transaction Contorller" style="rounded=1;whiteSpace=wrap;html=1;" vertex="1" parent="1">
          <mxGeometry x="170" y="360" width="120" height="60" as="geometry" />
        </mxCell>
        <mxCell id="dc4niTDKmquKS93eARYd-11" value="Actor" style="shape=umlActor;verticalLabelPosition=bottom;verticalAlign=top;html=1;outlineConnect=0;" vertex="1" parent="1">
          <mxGeometry x="40" y="190" width="30" height="60" as="geometry" />
        </mxCell>
        <mxCell id="dc4niTDKmquKS93eARYd-13" value="meCash REST Service" style="text;html=1;align=center;verticalAlign=middle;whiteSpace=wrap;rounded=0;" vertex="1" parent="1">
          <mxGeometry x="392.5" y="70" width="135" height="30" as="geometry" />
        </mxCell>
        <mxCell id="dc4niTDKmquKS93eARYd-14" style="edgeStyle=orthogonalEdgeStyle;rounded=0;orthogonalLoop=1;jettySize=auto;html=1;exitX=0.5;exitY=0.5;exitDx=0;exitDy=0;exitPerimeter=0;entryX=0.001;entryY=0.405;entryDx=0;entryDy=0;entryPerimeter=0;" edge="1" parent="1" source="dc4niTDKmquKS93eARYd-11" target="dc4niTDKmquKS93eARYd-12">
          <mxGeometry relative="1" as="geometry" />
        </mxCell>
      </root>
    </mxGraphModel>
  </diagram>
</mxfile>
